<svg xmlns="http://www.w3.org/2000/svg" viewBox="0 0 24 24">
	<defs>
		<style>
			.cls-1 {
				fill: #da513d;
			}
		</style>
	</defs>
	<path class="cls-1" d="M20.21,9.5H14.5V8.79L13.21,7.5H3.79L2.5,8.79v4.42L3.79,14.5H9.5v.71l1.29,1.29h9.42l1.29-1.29V10.79Zm.29,5.29-.71.71H11.21l-.71-.71V14.5h2.71l1.29-1.29V11.5h-1v1.29l-.71.71H4.21l-.71-.71V9.21l.71-.71h8.58l.71.71V9.5H10.79L9.5,10.79V12.5h1V11.21l.71-.71h8.58l.71.71Z"/>
	<polygon class="cls-1" points="7.5 17 6.5 17 6.5 18.5 5 18.5 5 19.5 6.5 19.5 6.5 21 7.5 21 7.5 19.5 9 19.5 9 18.5 7.5 18.5 7.5 17"/>
	<polygon class="cls-1" points="16.5 7 17.5 7 17.5 5.5 19 5.5 19 4.5 17.5 4.5 17.5 3 16.5 3 16.5 4.5 15 4.5 15 5.5 16.5 5.5 16.5 7"/>
</svg>
